<?xml version="1.0" encoding="UTF-8"?><svg id="Layer_1" xmlns="http://www.w3.org/2000/svg" viewBox="0 0 872.36 155.6"><defs><style>.cls-1{fill:#9c2620;}.cls-2{fill:#231f20;}</style></defs><g id="Camada_1"><path class="cls-1" d="M34.24,68.44h-.24L26.14,1.69H0L18.16,88.03h31.2L67.62,1.69h-25.52l-7.86,66.75h0Zm35.55,19.59h24.19V1.69h-24.19V88.03ZM96.98,22.01h16.47V88.03h24.18V22.01h16.45V1.69h-57.1V22.01Zm96.39,22.85c0,25.27-.97,28.9-6.16,28.9s-6.17-3.63-6.17-28.9,.97-28.9,6.17-28.9,6.16,3.63,6.16,28.9Zm-37.24,0c0,27.57,0,44.88,31.08,44.88s31.08-17.31,31.08-44.88S218.29,0,187.21,0s-31.08,18.14-31.08,44.86Zm93.6-25.75h2.78c5.44,0,8.95,1.69,8.95,8.88,0,8.39-4.23,10.22-8.22,10.22h-3.5V19.11Zm-24.19,68.92h24.19V54.18h4.47c4.23,0,6.65,1.33,6.65,8.67,0,4.23,.36,8.57,.36,12.78s.24,10.48,1.82,12.41h25.63v-1.21c-1.08-.48-1.93-1.33-2.53-2.52-.6-1.21-1.09-5.32-1.09-10.14v-7.09c0-5.08-.12-10.85-2.3-14.71-2.3-4.11-6.65-6.53-11.49-6.89v-.25c8.46-1.21,14.39-7.02,14.39-20.88s-7.13-22.65-23.82-22.65h-36.27V88.03h0Zm137,0h24.91L367.15,1.69h-30.35l-20.46,86.34h24.93l2.42-13.18h16.2l2.66,13.18h0Zm-5.32-32.04h-11l5.56-35.43h.25l5.2,35.43Zm34.1,32.04h50.54v-19.59h-26.36V1.69h-24.19V88.03Zm55.99,0h22.74V25.15h.24l10.65,62.88h17.41l10.64-62.88h.24v62.88h22.74V1.69h-34.34l-7.86,52.85h-.24l-7.13-52.85h-35.08V88.03h0Zm94.08,0h53.09v-19.59h-28.91v-14.99h26v-18.87h-26v-13.3h27.81V1.69h-52V88.03Zm99.65-33.61h-.24l-12.33-52.72h-26.25V88.03h22.01V34.82h.24l13.42,53.21h25.88V1.69h-22.74V54.42Zm56.71-35.31h3.51c7.5,0,8.46,4.47,8.46,13.18v25.15c0,6.53-.97,13.18-7.01,13.18h-4.96V19.11Zm-24.19,68.92h35.19c25.16,0,25.88-24.3,25.88-43.17,0-20.55-.85-25.15-4.59-31.92-3.87-7.01-10.88-11.25-21.65-11.25h-34.82V88.03h0Zm93.6-68.92h2.78c5.44,0,8.95,1.69,8.95,8.88,0,8.39-4.23,10.22-8.21,10.22h-3.51V19.11Zm-24.18,68.92h24.18V54.18h4.47c4.24,0,6.65,1.33,6.65,8.67,0,4.23,.37,8.57,.37,12.78s.23,10.48,1.81,12.41h25.64v-1.21c-1.09-.48-1.93-1.33-2.54-2.52-.6-1.21-1.08-5.32-1.08-10.14v-7.09c0-5.08-.12-10.85-2.29-14.71-2.3-4.11-6.65-6.53-11.49-6.89v-.25c8.46-1.21,14.39-7.02,14.39-20.88s-7.14-22.65-23.82-22.65h-36.27V88.03h0Zm104.46-43.17c0,25.27-.96,28.9-6.16,28.9s-6.17-3.63-6.17-28.9,.98-28.9,6.17-28.9,6.16,3.63,6.16,28.9Zm-37.23,0c0,27.57,0,44.88,31.07,44.88s31.07-17.31,31.07-44.88,0-44.86-31.07-44.86-31.07,18.14-31.07,44.86Z"/></g><g><path class="cls-2" d="M269.58,118.82h4.98v3.07h.15c1.31-2.34,3.8-3.75,6.73-3.75,4,0,6.54,1.8,6.54,7.12v19.81h-5.27v-18c0-3.42-1.03-4.74-3.66-4.74-2.15,0-4.19,1.71-4.19,5.12v17.62h-5.27v-26.25Z"/><path class="cls-2" d="M306.47,141.99h-.15c-1.32,2.34-3.81,3.76-6.73,3.76-3.9,0-6.54-1.81-6.54-8.59v-18.34h5.27v18.82c0,2.93,1.32,3.9,3.56,3.9s4.29-1.46,4.29-4.38v-18.34h5.27v26.25h-4.98v-3.08Z"/><path class="cls-2" d="M314.18,118.82h3.61v-7.47h5.27v7.47h4.29v3.9h-4.29v15.66c0,2.05,.58,2.79,2.39,2.79,.78,0,1.42-.05,1.9-.15v3.9c-1.12,.29-2.59,.44-4.24,.44-3.56,0-5.32-.97-5.32-6.34v-16.29h-3.61v-3.9Z"/><path class="cls-2" d="M330.08,118.82h5.27v4.09h.1c1.17-2.93,3.12-4.78,6.1-4.78,.58,0,.93,.09,1.27,.19v5.37c-.39-.1-1.32-.29-2.2-.29-2.39,0-5.26,1.07-5.26,5.95v15.71h-5.27v-26.25Z"/><path class="cls-2" d="M345.7,109.84h5.27v5.27h-5.27v-5.27Zm0,8.98h5.27v26.25h-5.27v-26.25Z"/><path class="cls-2" d="M364.04,145.65c-6.83-.44-8.78-5.95-8.78-13.71,0-8.15,2.15-13.81,9.76-13.81,7.85-.1,9.02,6.14,9.02,9.41h-5.27c0-2.43-.68-5.61-3.76-5.51-3.81,0-4.49,4.09-4.49,9.9s.68,9.9,4.49,9.9c2.93,.04,4-2.39,4-6.35h4.98c-.29,5.75-2.15,9.56-7.51,10.1l-1.61,2.24c.49-.1,1.32-.24,1.95-.24,2.19,0,3.81,1.66,3.81,3.61,0,2.63-2.49,4.39-5.71,4.39-1.85,0-3.76-.39-4.93-.83l.78-1.95c.78,.29,2.15,.63,3.22,.63,1.17,0,2.73-.34,2.73-1.85,0-1.12-1.03-1.85-2.25-1.85-.73,0-1.37,.24-1.85,.38l-.88-.83,2.29-3.66Z"/><path class="cls-2" d="M395.17,139.6c0,.98,.58,1.86,1.37,1.86,.34,0,.68-.05,.87-.15v3.42c-.63,.29-1.56,.63-2.58,.63-2.34,0-4.29-.93-4.44-3.47h-.1c-1.42,2.59-3.46,3.86-6.54,3.86-4.2,0-6.83-2.34-6.83-7.37,0-5.85,2.54-7.07,6.1-8.25l4.1-1.12c1.9-.54,3.07-1.07,3.07-3.37s-.83-3.9-3.61-3.9c-3.51,0-4,2.48-4,5.03h-4.98c0-5.57,2.29-8.64,9.22-8.64,4.64,0,8.34,1.8,8.34,6.44v15.02Zm-1.07-30.54c0,2.15-1.42,5.76-4.2,5.76-2.2,0-4.34-1.71-5.85-1.71-1.08,0-1.66,.97-1.66,1.95h-3.03c0-2.09,1.32-5.85,4.93-5.85,.78,0,1.66,.44,2.59,.83,.92,.44,1.9,.88,2.73,.88,1.12,0,1.46-.97,1.46-1.86h3.03Zm-3.91,22.15c-1.36,1.08-4.29,1.71-5.85,2.44-1.51,.73-2.15,2.3-2.15,4.25,0,2.19,1.07,3.95,3.27,3.95,3.17,0,4.73-2.39,4.73-6.24v-4.39Z"/><path class="cls-2" d="M409.27,118.14c7.66,0,9.8,5.65,9.8,13.81s-2.49,13.81-9.8,13.81-9.75-5.66-9.75-13.81,2.15-13.81,9.75-13.81Zm0,23.71c3.85,0,4.54-3.23,4.54-9.9,0-5.81-.69-9.9-4.54-9.9s-4.49,4.09-4.49,9.9c0,6.68,.68,9.9,4.49,9.9Z"/><path class="cls-2" d="M439.38,132.63v1.51c0,3.51,.44,8,4.39,8s4.2-4.29,4.2-5.86h4.97c0,5.81-3.51,9.47-9.21,9.47-4.3,0-9.62-1.27-9.62-13.42,0-6.87,1.47-14.19,9.71-14.19,7.32,0,9.27,4.38,9.27,11.71v2.79h-13.71Zm8.44-3.61v-1.42c0-3.32-1.08-5.85-4.05-5.85-3.36,0-4.39,3.32-4.39,6.73v.54h8.44Z"/><path class="cls-2" d="M468.75,126.47v-.69c0-2.09-.73-4.04-3.47-4.04-2.09,0-3.75,.98-3.75,3.41,0,2.05,.92,2.88,3.71,3.86l3.36,1.17c3.91,1.32,5.71,3.42,5.71,7.56,0,5.61-4.09,8-9.41,8-6.64,0-8.64-3.08-8.64-8.15v-.98h4.69v.83c0,3.03,1.07,4.69,4.09,4.69s4.29-1.47,4.29-3.86c0-1.95-1.03-3.22-2.88-3.85l-4.29-1.51c-3.95-1.37-5.61-3.37-5.61-7.56,0-4.93,3.56-7.22,8.98-7.22,6.68,0,8.2,3.9,8.2,7.17v1.17h-4.98Z"/><path class="cls-2" d="M478.22,118.82h4.97v3.22h.1c1.08-2.34,3.03-3.9,5.9-3.9,6,0,8.44,5.12,8.44,14.15,0,11.02-4.49,13.46-8.09,13.46-2.83,0-4.98-1.42-5.95-3.76h-.09v11.66h-5.27v-34.83Zm9.46,22.73c3.03,0,4.39-2.24,4.39-9.51,0-5.95-.78-9.71-4.44-9.71s-4.44,3.71-4.44,9.32c0,6.29,.78,9.9,4.49,9.9Z"/><path class="cls-2" d="M510.42,118.14c7.66,0,9.8,5.65,9.8,13.81s-2.48,13.81-9.8,13.81-9.75-5.66-9.75-13.81,2.14-13.81,9.75-13.81Zm0,23.71c3.85,0,4.54-3.23,4.54-9.9,0-5.81-.68-9.9-4.54-9.9s-4.49,4.09-4.49,9.9c0,6.68,.68,9.9,4.49,9.9Z"/><path class="cls-2" d="M524.28,118.82h5.27v4.09h.1c1.17-2.93,3.13-4.78,6.09-4.78,.59,0,.93,.09,1.28,.19v5.37c-.39-.1-1.32-.29-2.2-.29-2.38,0-5.27,1.07-5.27,5.95v15.71h-5.27v-26.25Z"/><path class="cls-2" d="M537.31,118.82h3.61v-7.47h5.27v7.47h4.29v3.9h-4.29v15.66c0,2.05,.58,2.79,2.39,2.79,.78,0,1.41-.05,1.9-.15v3.9c-1.13,.29-2.58,.44-4.24,.44-3.56,0-5.32-.97-5.32-6.34v-16.29h-3.61v-3.9Z"/><path class="cls-2" d="M553.46,109.84h5.27v5.27h-5.27v-5.27Zm0,8.98h5.27v26.25h-5.27v-26.25Z"/><path class="cls-2" d="M561.85,118.82h5.66l4.59,20.68h.09l4.15-20.68h5.61l-6.93,26.25h-6.15l-7.02-26.25Z"/><path class="cls-2" d="M601.47,139.6c0,.98,.58,1.86,1.36,1.86,.34,0,.68-.05,.88-.15v3.42c-.63,.29-1.56,.63-2.58,.63-2.34,0-4.29-.93-4.44-3.47h-.09c-1.42,2.59-3.47,3.86-6.54,3.86-4.19,0-6.83-2.34-6.83-7.37,0-5.85,2.53-7.07,6.1-8.25l4.09-1.12c1.9-.54,3.08-1.07,3.08-3.37s-.83-3.9-3.61-3.9c-3.52,0-4,2.48-4,5.03h-4.98c0-5.57,2.29-8.64,9.22-8.64,4.64,0,8.35,1.8,8.35,6.44v15.02Zm-4.98-8.39c-1.37,1.08-4.29,1.71-5.86,2.44-1.51,.73-2.14,2.3-2.14,4.25,0,2.19,1.08,3.95,3.27,3.95,3.17,0,4.74-2.39,4.74-6.24v-4.39Z"/></g></svg>