<?xml version="1.0" encoding="UTF-8"?>
<svg xmlns="http://www.w3.org/2000/svg" viewBox="0 0 872.36 110">
  <defs>
    <style>
      .cls-1 { fill: #9c2620; }
    </style>
  </defs>
  <g id="Camada_1">
    <path class="cls-1" d="M34.24,68.44h-.24L26.14,1.69H0L18.16,88.03h31.2L67.62,1.69h-25.52l-7.86,66.75h0Zm35.55,19.59h24.19V1.69h-24.19V88.03ZM96.98,22.01h16.47V88.03h24.18V22.01h16.45V1.69h-57.1V22.01Zm96.39,22.85c0,25.27-.97,28.9-6.16,28.9s-6.17-3.63-6.17-28.9,.97-28.9,6.17-28.9,6.16,3.63,6.16,28.9Zm-37.24,0c0,27.57,0,44.88,31.08,44.88s31.08-17.31,31.08-44.88S218.29,0,187.21,0s-31.08,18.14-31.08,44.86Zm93.6-25.75h2.78c5.44,0,8.95,1.69,8.95,8.88,0,8.39-4.23,10.22-8.22,10.22h-3.5V19.11Zm-24.19,68.92h24.19V54.18h4.47c4.23,0,6.65,1.33,6.65,8.67,0,4.23,.36,8.57,.36,12.78s.24,10.48,1.82,12.41h25.63v-1.21c-1.08-.48-1.93-1.33-2.53-2.52-.6-1.21-1.09-5.32-1.09-10.14v-7.09c0-5.08-.12-10.85-2.3-14.71-2.3-4.11-6.65-6.53-11.49-6.89v-.25c8.46-1.21,14.39-7.02,14.39-20.88s-7.13-22.65-23.82-22.65h-36.27V88.03h0Zm137,0h24.91L367.15,1.69h-30.35l-20.46,86.34h24.93l2.42-13.18h16.2l2.66,13.18h0Zm-5.32-32.04h-11l5.56-35.43h.25l5.2,35.43Zm34.1,32.04h50.54v-19.59h-26.36V1.69h-24.19V88.03Zm55.99,0h22.74V25.15h.24l10.65,62.88h17.41l10.64-62.88h.24v62.88h22.74V1.69h-34.34l-7.86,52.85h-.24l-7.13-52.85h-35.08V88.03h0Zm94.08,0h53.09v-19.59h-28.91v-14.99h26v-18.87h-26v-13.3h27.81V1.69h-52V88.03Zm99.65-33.61h-.24l-12.33-52.72h-26.25V88.03h22.01V34.82h.24l13.42,53.21h25.88V1.69h-22.74V54.42Zm56.71-35.31h3.51c7.5,0,8.46,4.47,8.46,13.18v25.15c0,6.53-.97,13.18-7.01,13.18h-4.96V19.11Zm-24.19,68.92h35.19c25.16,0,25.88-24.3,25.88-43.17,0-20.55-.85-25.15-4.59-31.92-3.87-7.01-10.88-11.25-21.65-11.25h-34.82V88.03h0Zm93.6-68.92h2.78c5.44,0,8.95,1.69,8.95,8.88,0,8.39-4.23,10.22-8.21,10.22h-3.51V19.11Zm-24.18,68.92h24.18V54.18h4.47c4.24,0,6.65,1.33,6.65,8.67,0,4.23,.37,8.57,.37,12.78s.23,10.48,1.81,12.41h25.64v-1.21c-1.09-.48-1.93-1.33-2.54-2.52-.6-1.21-1.08-5.32-1.08-10.14v-7.09c0-5.08-.12-10.85-2.29-14.71-2.3-4.11-6.65-6.53-11.49-6.89v-.25c8.46-1.21,14.39-7.02,14.39-20.88s-7.14-22.65-23.82-22.65h-36.27V88.03h0Zm104.46-43.17c0,25.27-.96,28.9-6.16,28.9s-6.17-3.63-6.17-28.9,.98-28.9,6.17-28.9,6.16,3.63,6.16,28.9Zm-37.23,0c0,27.57,0,44.88,31.07,44.88s31.07-17.31,31.07-44.88,0-44.86-31.07-44.86-31.07,18.14-31.07,44.86Z"/>
  </g>
  <!-- Decorative accent line -->
  <line x1="270" y1="100" x2="600" y2="100" stroke="#9c2620" stroke-width="2.5" stroke-linecap="round"/>
  <circle cx="264" cy="100" r="3.5" fill="#9c2620"/>
  <circle cx="606" cy="100" r="3.5" fill="#9c2620"/>
</svg>
